<?xml version="1.0" encoding="UTF-8" standalone="no"?>
<svg
   xmlns:dc="http://purl.org/dc/elements/1.1/"
   xmlns:cc="http://creativecommons.org/ns#"
   xmlns:rdf="http://www.w3.org/1999/02/22-rdf-syntax-ns#"
   xmlns:svg="http://www.w3.org/2000/svg"
   xmlns="http://www.w3.org/2000/svg"
   xmlns:sodipodi="http://sodipodi.sourceforge.net/DTD/sodipodi-0.dtd"
   xmlns:inkscape="http://www.inkscape.org/namespaces/inkscape"
   version="1.1"
   id="svg10"
   xml:space="preserve"
   width="171.25426"
   height="163.9509"
   viewBox="0 0 171.25426 163.9509"
   sodipodi:docname="logo-dark-bg.svg"
   inkscape:version="1.0 (4035a4fb49, 2020-05-01)"
   inkscape:export-xdpi="300.04651"
   inkscape:export-ydpi="300.04651"><metadata
     id="metadata16"><rdf:RDF><cc:Work
         rdf:about=""><dc:format>image/svg+xml</dc:format><dc:type
           rdf:resource="http://purl.org/dc/dcmitype/StillImage" /><dc:title /></cc:Work></rdf:RDF></metadata><defs
     id="defs14"><clipPath
       clipPathUnits="userSpaceOnUse"
       id="clipPath26"><path
         d="M 0,768 H 1366 V 0 H 0 Z"
         id="path24" /></clipPath></defs><sodipodi:namedview
     inkscape:document-rotation="0"
     pagecolor="#ffffff"
     bordercolor="#666666"
     borderopacity="1"
     objecttolerance="10"
     gridtolerance="10"
     guidetolerance="10"
     inkscape:pageopacity="0"
     inkscape:pageshadow="2"
     inkscape:window-width="1920"
     inkscape:window-height="1001"
     id="namedview12"
     showgrid="false"
     fit-margin-top="2.6"
     fit-margin-left="2.6"
     fit-margin-right="2.6"
     fit-margin-bottom="2.6"
     inkscape:zoom="2.56"
     inkscape:cx="16.124553"
     inkscape:cy="123.07092"
     inkscape:window-x="-9"
     inkscape:window-y="-9"
     inkscape:window-maximized="1"
     inkscape:current-layer="g18"
     inkscape:pagecheckerboard="false" /><g
     id="g18"
     inkscape:groupmode="layer"
     inkscape:label="Final"
     transform="matrix(1.3333333,0,0,-1.3333333,-520.11105,603.85678)"><g
       style="fill:#e6ffff;fill-opacity:1;stroke:#e6ffff;stroke-opacity:1;stroke-width:0.99975002;stroke-miterlimit:4;stroke-dasharray:none"
       id="g28"
       transform="translate(490.6992,425.5215)"><path
         d="m 0,0 c -3.47,-3.672 -6.976,-7.206 -10.355,-10.857 -7.282,-7.864 -14.201,-16.018 -20.101,-25.004 -5.193,-7.909 -9.496,-16.232 -11.961,-25.397 -1.447,-5.38 -2.354,-10.84 -0.806,-16.41 1.679,-6.041 5.883,-9.257 11.704,-10.824 2.839,-0.765 5.73,-0.645 9.069,-0.642 -1.797,-1.3 -3.451,-1.783 -5.06,-2.31 -6.672,-2.184 -13.469,-2.979 -20.365,-1.282 -8.739,2.152 -14.813,9.163 -16.03,18.081 -1.153,8.452 0.666,16.41 3.959,24.083 5.502,12.824 14.413,22.978 25.18,31.643 9.202,7.404 19.341,13.165 30.337,17.433 C -2.979,-0.923 -1.478,-0.492 0,0"
         style="fill:#e6ffff;fill-opacity:1;fill-rule:nonzero;stroke:#e6ffff;stroke-opacity:1;stroke-width:0.99975002;stroke-miterlimit:4;stroke-dasharray:none"
         id="path30" /></g><g
       style="fill:#e6ffff;fill-opacity:1;stroke:#e6ffff;stroke-opacity:1;stroke-width:0.37500001;stroke-miterlimit:4;stroke-dasharray:none"
       id="g32"
       transform="translate(454.5493,449.2627)"><path
         d="m 0,0 c 0.74,-2.839 1.51,-5.671 2.212,-8.519 1.024,-4.148 1.03,-3.999 5.27,-4.722 7.595,-1.294 14.648,-4.028 20.969,-8.522 1.006,-0.714 0.974,-1.228 -0.15,-1.698 -1.809,-0.758 -3.637,-1.474 -5.422,-2.285 -0.932,-0.424 -1.624,0 -2.359,0.407 -3.402,1.881 -6.973,3.318 -10.76,4.228 -8.661,2.082 -17.087,1.365 -25.415,-1.756 -4.982,-1.866 -9.38,-4.683 -13.181,-8.23 -7.129,-6.65 -11.7,-14.85 -13.087,-24.607 -1.508,-10.606 0.472,-20.48 6.423,-29.507 1.178,-1.788 2.446,-3.476 3.836,-5.088 0.302,-0.349 0.548,-0.714 0.54,-1.195 -0.049,-3.241 0.067,-6.468 1.008,-9.842 -1.25,0.386 -1.93,1.111 -2.648,1.764 -5.12,4.648 -9.386,9.956 -12.262,16.282 -2.216,4.871 -3.834,9.935 -4.314,15.298 -0.134,1.492 -0.585,2.417 -2.231,2.789 -3.54,0.802 -7.032,1.817 -10.945,2.85 2.235,1.04 4.326,1.285 6.296,1.886 1.607,0.49 3.243,0.917 4.894,1.213 1.339,0.24 1.8,0.962 1.949,2.234 0.615,5.256 1.779,10.371 4.036,15.202 4.838,10.357 12.284,18.223 22.406,23.534 5.415,2.841 11.138,4.718 17.266,5.183 1.573,0.12 2.297,0.788 2.64,2.387 0.77,3.589 1.784,7.125 2.698,10.683 C -0.22,-0.021 -0.11,-0.01 0,0"
         style="fill:#e6ffff;fill-opacity:1;fill-rule:nonzero;stroke:#e6ffff;stroke-opacity:1;stroke-width:0.37500001;stroke-miterlimit:4;stroke-dasharray:none"
         id="path34" /></g><g
       style="fill:#e6ffff;fill-opacity:1;stroke:#e6ffff;stroke-opacity:1;stroke-width:0.75000002;stroke-miterlimit:4;stroke-dasharray:none"
       id="g36"
       transform="translate(452.457,344.7568)"><path
         d="m 0,0 c 2.223,0.184 4.503,0.064 6.772,0.343 9.884,1.209 18.314,5.356 25.293,12.399 6.648,6.709 10.619,14.833 11.813,24.178 1.248,9.759 -0.704,18.931 -5.87,27.368 -1.291,2.108 -2.688,4.138 -4.373,5.948 -0.56,0.602 -0.493,0.984 0.072,1.515 1.144,1.076 2.276,2.172 3.326,3.337 0.787,0.874 1.321,0.674 2.036,-0.089 2.314,-2.474 4.239,-5.237 5.895,-8.162 3.461,-6.114 5.761,-12.629 6.208,-19.705 0.061,-0.97 0.425,-1.486 1.437,-1.728 3.375,-0.807 6.726,-1.714 10.083,-2.593 0.464,-0.122 0.99,-0.141 1.425,-0.766 C 60.426,41.096 56.841,40.092 53.213,39.278 51.631,38.922 51.237,38.101 51.099,36.603 50.461,29.694 48.252,23.284 44.729,17.304 42.088,12.821 38.832,8.844 34.99,5.366 29.592,0.479 23.443,-3.4 16.372,-5.016 10.61,-6.331 4.828,-5.472 0.335,-0.826 0.153,-0.638 -0.125,-0.483 0,0"
         style="fill:#e6ffff;fill-opacity:1;fill-rule:nonzero;stroke:#e6ffff;stroke-opacity:1;stroke-width:0.75000002;stroke-miterlimit:4;stroke-dasharray:none"
         id="path38" /></g><g
       style="fill:#ffb380;fill-opacity:1;stroke:none;stroke-opacity:1"
       id="g40"
       transform="translate(483.7173,388.6055)"><path
         d="m 0,0 c 0.015,-5.19 -0.712,-8.621 -1.928,-11.975 -0.399,-1.1 -0.79,-1.288 -1.527,-0.305 -0.166,0.222 -0.354,0.467 -0.59,0.593 -3.323,1.79 -3.208,4.541 -2.62,7.793 0.9,4.969 -0.335,9.663 -2.936,13.983 -0.375,0.624 -0.769,1.24 -1.192,1.831 -0.35,0.491 -0.332,0.918 0.056,1.365 0.92,1.058 1.848,2.11 2.741,3.19 0.708,0.855 1.196,0.666 1.831,-0.147 C -2.046,11.048 -0.109,5.036 0,0"
         style="fill:#ffb380;fill-opacity:1;fill-rule:nonzero;stroke:none;stroke-opacity:1"
         id="path42" /></g><g
       style="fill:#ffb380;fill-opacity:1;stroke:none;stroke-opacity:1"
       id="g44"
       transform="translate(483.7432,368.6611)"
       inkscape:export-xdpi="300.04651"
       inkscape:export-ydpi="300.04651"><path
         d="M 0,0 C -1.627,0.602 -3.109,0.536 -3.803,2.071 -4.007,2.523 -4.033,1.996 -4.056,1.927 -4.261,1.321 -4.667,1.578 -5.015,1.706 c -6.633,2.456 -13.254,4.95 -19.906,7.355 -1.343,0.485 -1.7,1.074 -0.954,2.318 1.556,2.592 3.094,5.195 4.606,7.813 0.561,0.969 1.029,0.516 1.555,0.005 4.664,-4.529 9.362,-9.024 13.982,-13.598 C -3.95,3.833 -1.766,2.489 0,0"
         style="fill:#ffb380;fill-opacity:1;fill-rule:nonzero;stroke:none;stroke-opacity:1"
         id="path46" /></g><g
       style="fill:#ffb380;fill-opacity:1;stroke:none;stroke-opacity:1"
       id="g48"
       transform="translate(462.4771,415.084)"><path
         d="m 0,0 c -2.442,-1.725 -4.618,-3.275 -6.81,-4.801 -0.521,-0.363 -1.147,-0.413 -1.774,-0.415 -5.426,-0.017 -10.184,-1.865 -14.302,-5.346 -0.79,-0.667 -1.468,-0.868 -2.42,-0.463 -1.338,0.568 -2.707,1.07 -4.081,1.546 -0.893,0.309 -0.852,0.685 -0.265,1.292 5.394,5.587 11.926,8.812 19.694,9.326 C -6.726,1.353 -3.481,1.219 0,0"
         style="fill:#ffb380;fill-opacity:1;fill-rule:nonzero;stroke:none;stroke-opacity:1"
         id="path50" /></g><g
       style="fill:#ffb380;fill-opacity:1;stroke:none;stroke-opacity:1"
       id="g52"
       transform="translate(453.4346,364.0156)"><path
         d="M 0,0 C 6.161,0.137 11.536,1.699 16.003,5.758 16.336,6.061 16.679,6.47 17.165,6.285 18.834,5.652 20.514,5.03 22.13,4.275 23.196,3.777 22.604,3.055 22.072,2.553 16.368,-2.837 9.661,-5.97 1.76,-6.35 c -1.676,-0.08 -4.014,-0.487 -4.792,0.653 -0.962,1.41 0.262,3.534 0.77,5.273 C -1.858,0.961 -0.538,-0.483 0,0"
         style="fill:#ffb380;fill-opacity:1;fill-rule:nonzero;stroke:none;stroke-opacity:1"
         id="path54" /></g><g
       style="fill:#ffb380;fill-opacity:1;stroke:none;stroke-opacity:1"
       id="g56"
       transform="translate(427.5317,375.3057)"><path
         d="m 0,0 c -2.091,5.091 -2.793,9.889 -2.308,14.875 0.225,2.296 0.808,4.506 1.581,6.665 0.6,1.678 0.869,1.72 2.098,0.541 0.081,-0.078 0.15,-0.172 0.241,-0.234 C 4.3,20.036 5.497,17.74 4.06,14.535 3.91,14.202 3.955,13.756 3.99,13.371 4.306,9.891 3.76,6.626 1.813,3.637 1.152,2.622 0.718,1.46 0,0"
         style="fill:#ffb380;fill-opacity:1;fill-rule:nonzero;stroke:none;stroke-opacity:1"
         id="path58" /></g><g
       style="fill:#ffb380;fill-opacity:1;stroke:none;stroke-opacity:1"
       id="g60"
       transform="translate(424.8989,405.4536)"><path
         d="m 0,0 c 3.254,-1.166 6.237,-2.225 9.212,-3.303 2.476,-0.896 4.931,-1.848 7.417,-2.711 1.199,-0.416 1.576,-0.823 0.498,-1.877 -1.158,-1.131 -2.263,-2.346 -3.212,-3.654 -0.713,-0.982 -1.171,-0.895 -1.949,-0.134 -2.961,2.901 -5.982,5.74 -8.945,8.64 C 2.081,-2.118 0.87,-1.461 0,0"
         style="fill:#ffb380;fill-opacity:1;fill-rule:nonzero;stroke:none;stroke-opacity:1"
         id="path62" /></g><g
       style="fill:#ffb380;fill-opacity:1;stroke:#ffb380;stroke-opacity:1"
       id="g64"
       transform="translate(499.0508,432.397)"><path
         d="m 0,0 c 0.001,0.755 -0.211,1.088 -0.956,1.308 -2.869,0.844 -5.713,1.771 -8.568,2.661 -0.203,0.064 -0.415,0.091 -0.624,0.348 8.913,3.01 17.791,6.008 26.669,9.006 L 0.099,-9.843 C 0.062,-6.562 -0.007,-3.281 0,0"
         style="fill:#ffb380;fill-opacity:1;fill-rule:nonzero;stroke:#ffb380;stroke-opacity:1"
         id="path66" /></g><g
       style="fill:#e6ffff;fill-opacity:1;stroke:#e6ffff;stroke-opacity:1"
       id="g68"
       transform="translate(502.8623,445.5146)"><path
         d="M 0,0 C 0.425,-0.57 0.843,-1.146 1.282,-1.705 1.423,-1.885 1.363,-2.086 1.146,-2.157 -0.373,-2.648 -1.885,-3.16 -3.392,-3.686 -3.883,-3.857 -3.948,-3.64 -3.951,-3.223 -3.975,-0.339 -4.015,2.544 -4.049,5.428 -2.699,3.619 -1.35,1.809 0,0"
         style="fill:#e6ffff;fill-opacity:1;fill-rule:nonzero;stroke:#e6ffff;stroke-opacity:1"
         id="path70" /></g><g
       style="fill:#e6ffff;fill-opacity:1;stroke:#e6ffff;stroke-opacity:1"
       id="g72"
       transform="translate(515.7852,428.1665)"><path
         d="m 0,0 c -2.974,0.933 -5.672,1.787 -8.378,2.618 -0.731,0.225 -0.195,0.488 0.981,1.989 0.564,0.719 1.024,1.512 1.462,2.313 0.343,0.628 0.497,0.379 0.699,0.107 C -3.546,4.753 -1.852,2.483 0,0"
         style="fill:#e6ffff;fill-opacity:1;fill-rule:nonzero;stroke:#e6ffff;stroke-opacity:1"
         id="path74" /></g></g></svg>
